<mxfile host="65bd71144e">
    <diagram id="TkpPdquOrFJevKSg2tCV" name="Page-1">
        <mxGraphModel dx="1494" dy="814" grid="1" gridSize="10" guides="1" tooltips="1" connect="1" arrows="1" fold="1" page="1" pageScale="1" pageWidth="827" pageHeight="1169" math="0" shadow="0">
            <root>
                <mxCell id="0"/>
                <mxCell id="1" parent="0"/>
                <mxCell id="13" value="sm[0]" style="edgeStyle=none;html=1;exitX=0.5;exitY=1;exitDx=0;exitDy=0;entryX=0.25;entryY=0;entryDx=0;entryDy=0;" parent="1" source="3" target="4" edge="1">
                    <mxGeometry relative="1" as="geometry"/>
                </mxCell>
                <mxCell id="14" value="em[0]" style="edgeStyle=none;html=1;exitX=1;exitY=0.75;exitDx=0;exitDy=0;entryX=0;entryY=0.75;entryDx=0;entryDy=0;" parent="1" source="3" target="9" edge="1">
                    <mxGeometry relative="1" as="geometry"/>
                </mxCell>
                <mxCell id="3" value="&lt;div style=&quot;color: rgb(229 , 229 , 229) ; background-color: rgb(23 , 26 , 39) ; font-family: &amp;#34;menlo&amp;#34; , &amp;#34;monaco&amp;#34; , &amp;#34;courier new&amp;#34; , monospace ; line-height: 18px&quot;&gt;&lt;span style=&quot;color: #74d992&quot;&gt;Text&lt;/span&gt;&lt;/div&gt;" style="rounded=1;whiteSpace=wrap;html=1;arcSize=50;" parent="1" vertex="1">
                    <mxGeometry x="210" y="120" width="160" height="40" as="geometry"/>
                </mxCell>
                <mxCell id="18" style="edgeStyle=none;curved=1;html=1;exitX=0;exitY=0.5;exitDx=0;exitDy=0;entryX=0.25;entryY=1;entryDx=0;entryDy=0;strokeColor=default;" parent="1" source="4" target="3" edge="1">
                    <mxGeometry relative="1" as="geometry">
                        <Array as="points">
                            <mxPoint x="190" y="220"/>
                        </Array>
                    </mxGeometry>
                </mxCell>
                <mxCell id="19" value="other" style="edgeLabel;html=1;align=center;verticalAlign=middle;resizable=0;points=[];" parent="18" vertex="1" connectable="0">
                    <mxGeometry x="0.1151" y="-14" relative="1" as="geometry">
                        <mxPoint as="offset"/>
                    </mxGeometry>
                </mxCell>
                <mxCell id="20" style="edgeStyle=none;curved=1;html=1;exitX=0.5;exitY=1;exitDx=0;exitDy=0;entryX=0.5;entryY=0;entryDx=0;entryDy=0;strokeColor=default;" parent="1" source="4" target="5" edge="1">
                    <mxGeometry relative="1" as="geometry"/>
                </mxCell>
                <mxCell id="21" value="sm[last]" style="edgeLabel;html=1;align=center;verticalAlign=middle;resizable=0;points=[];" parent="20" vertex="1" connectable="0">
                    <mxGeometry x="-0.0791" y="2" relative="1" as="geometry">
                        <mxPoint as="offset"/>
                    </mxGeometry>
                </mxCell>
                <mxCell id="4" value="&lt;div style=&quot;color: rgb(229 , 229 , 229) ; background-color: rgb(23 , 26 , 39) ; font-family: &amp;#34;menlo&amp;#34; , &amp;#34;monaco&amp;#34; , &amp;#34;courier new&amp;#34; , monospace ; line-height: 18px&quot;&gt;&lt;span style=&quot;color: #74d992&quot;&gt;OpenVariable&lt;/span&gt;&lt;/div&gt;" style="rounded=1;whiteSpace=wrap;html=1;arcSize=50;" parent="1" vertex="1">
                    <mxGeometry x="250" y="240" width="160" height="40" as="geometry"/>
                </mxCell>
                <mxCell id="22" value="fusion context character&lt;br&gt;or unsignificant starter character" style="edgeStyle=none;curved=1;html=1;exitX=0.5;exitY=1;exitDx=0;exitDy=0;entryX=0.5;entryY=0;entryDx=0;entryDy=0;strokeColor=default;" parent="1" source="5" target="7" edge="1">
                    <mxGeometry relative="1" as="geometry"/>
                </mxCell>
                <mxCell id="24" style="edgeStyle=none;curved=1;html=1;exitX=0;exitY=0.5;exitDx=0;exitDy=0;entryX=0;entryY=0.5;entryDx=0;entryDy=0;strokeColor=default;" parent="1" source="5" target="8" edge="1">
                    <mxGeometry relative="1" as="geometry">
                        <mxPoint x="290" y="380" as="sourcePoint"/>
                        <mxPoint x="290" y="620" as="targetPoint"/>
                        <Array as="points">
                            <mxPoint x="150" y="350"/>
                            <mxPoint x="90" y="550"/>
                            <mxPoint x="200" y="670"/>
                        </Array>
                    </mxGeometry>
                </mxCell>
                <mxCell id="25" value="valid variable&lt;br&gt;start character" style="edgeLabel;html=1;align=center;verticalAlign=middle;resizable=0;points=[];" parent="24" vertex="1" connectable="0">
                    <mxGeometry x="0.3838" y="48" relative="1" as="geometry">
                        <mxPoint x="-29" y="-155" as="offset"/>
                    </mxGeometry>
                </mxCell>
                <mxCell id="34" value="other" style="edgeStyle=none;curved=1;html=1;exitX=0;exitY=1;exitDx=0;exitDy=0;entryX=1;entryY=0;entryDx=0;entryDy=0;strokeColor=#FF0000;" parent="1" source="5" target="30" edge="1">
                    <mxGeometry relative="1" as="geometry"/>
                </mxCell>
                <mxCell id="5" value="&lt;div style=&quot;color: rgb(229 , 229 , 229) ; background-color: rgb(23 , 26 , 39) ; font-family: &amp;#34;menlo&amp;#34; , &amp;#34;monaco&amp;#34; , &amp;#34;courier new&amp;#34; , monospace ; line-height: 18px&quot;&gt;&lt;span style=&quot;color: #74d992&quot;&gt;PreVariableSpace&lt;/span&gt;&lt;/div&gt;" style="rounded=1;whiteSpace=wrap;html=1;arcSize=50;" parent="1" vertex="1">
                    <mxGeometry x="250" y="360" width="160" height="40" as="geometry"/>
                </mxCell>
                <mxCell id="23" value="valid variable start character" style="edgeStyle=none;curved=1;html=1;exitX=0.5;exitY=1;exitDx=0;exitDy=0;strokeColor=default;" parent="1" source="7" target="8" edge="1">
                    <mxGeometry relative="1" as="geometry"/>
                </mxCell>
                <mxCell id="29" value="" style="edgeStyle=none;curved=1;html=1;strokeColor=#FF0000;entryX=1;entryY=0.5;entryDx=0;entryDy=0;" parent="1" source="7" target="30" edge="1">
                    <mxGeometry relative="1" as="geometry">
                        <mxPoint x="210" y="500" as="targetPoint"/>
                    </mxGeometry>
                </mxCell>
                <mxCell id="33" value="other" style="edgeLabel;html=1;align=center;verticalAlign=middle;resizable=0;points=[];" parent="29" vertex="1" connectable="0">
                    <mxGeometry x="-0.1667" relative="1" as="geometry">
                        <mxPoint as="offset"/>
                    </mxGeometry>
                </mxCell>
                <mxCell id="7" value="&lt;div style=&quot;color: rgb(229 , 229 , 229) ; background-color: rgb(23 , 26 , 39) ; font-family: &amp;#34;menlo&amp;#34; , &amp;#34;monaco&amp;#34; , &amp;#34;courier new&amp;#34; , monospace ; line-height: 18px&quot;&gt;&lt;span style=&quot;color: #74d992&quot;&gt;StartDecodingVariable&lt;/span&gt;&lt;/div&gt;" style="rounded=1;whiteSpace=wrap;html=1;arcSize=50;" parent="1" vertex="1">
                    <mxGeometry x="240" y="480" width="180" height="40" as="geometry"/>
                </mxCell>
                <mxCell id="38" value="other" style="edgeStyle=none;curved=1;html=1;exitX=0;exitY=0.25;exitDx=0;exitDy=0;entryX=1;entryY=1;entryDx=0;entryDy=0;strokeColor=#FF0000;" parent="1" source="8" target="30" edge="1">
                    <mxGeometry relative="1" as="geometry"/>
                </mxCell>
                <mxCell id="41" style="edgeStyle=none;curved=1;html=1;exitX=0.5;exitY=1;exitDx=0;exitDy=0;entryX=0.5;entryY=0;entryDx=0;entryDy=0;strokeColor=default;" parent="1" source="8" target="11" edge="1">
                    <mxGeometry relative="1" as="geometry"/>
                </mxCell>
                <mxCell id="42" value="em[0]" style="edgeLabel;html=1;align=center;verticalAlign=middle;resizable=0;points=[];" parent="41" vertex="1" connectable="0">
                    <mxGeometry x="-0.0624" y="1" relative="1" as="geometry">
                        <mxPoint as="offset"/>
                    </mxGeometry>
                </mxCell>
                <mxCell id="43" value="fusion context&lt;br&gt;node character&lt;br&gt;or space" style="edgeStyle=none;curved=1;html=1;exitX=0.5;exitY=1;exitDx=0;exitDy=0;entryX=0.25;entryY=0;entryDx=0;entryDy=0;strokeColor=default;" parent="1" source="8" target="10" edge="1">
                    <mxGeometry relative="1" as="geometry"/>
                </mxCell>
                <mxCell id="86" style="edgeStyle=none;html=1;exitX=0.5;exitY=1;exitDx=0;exitDy=0;entryX=0.75;entryY=0;entryDx=0;entryDy=0;curved=1;" parent="1" source="8" target="85" edge="1">
                    <mxGeometry relative="1" as="geometry">
                        <Array as="points">
                            <mxPoint x="320" y="760"/>
                        </Array>
                    </mxGeometry>
                </mxCell>
                <mxCell id="87" value="left&lt;br&gt;parenthesis" style="edgeLabel;html=1;align=center;verticalAlign=middle;resizable=0;points=[];" parent="86" vertex="1" connectable="0">
                    <mxGeometry x="-0.4642" y="-4" relative="1" as="geometry">
                        <mxPoint as="offset"/>
                    </mxGeometry>
                </mxCell>
                <mxCell id="8" value="&lt;div style=&quot;color: rgb(229 , 229 , 229) ; background-color: rgb(23 , 26 , 39) ; font-family: &amp;#34;menlo&amp;#34; , &amp;#34;monaco&amp;#34; , &amp;#34;courier new&amp;#34; , monospace ; line-height: 18px&quot;&gt;&lt;span style=&quot;color: #74d992&quot;&gt;DecodingVariable&lt;/span&gt;&lt;/div&gt;" style="rounded=1;whiteSpace=wrap;html=1;arcSize=50;" parent="1" vertex="1">
                    <mxGeometry x="250" y="600" width="160" height="40" as="geometry"/>
                </mxCell>
                <mxCell id="60" style="edgeStyle=none;curved=1;html=1;exitX=0;exitY=0.25;exitDx=0;exitDy=0;entryX=1;entryY=0.25;entryDx=0;entryDy=0;strokeColor=default;" parent="1" source="9" target="3" edge="1">
                    <mxGeometry relative="1" as="geometry"/>
                </mxCell>
                <mxCell id="61" value="last em&lt;br&gt;or other&amp;nbsp;" style="edgeLabel;html=1;align=center;verticalAlign=middle;resizable=0;points=[];" parent="60" vertex="1" connectable="0">
                    <mxGeometry x="0.0486" y="-1" relative="1" as="geometry">
                        <mxPoint x="3" y="-9" as="offset"/>
                    </mxGeometry>
                </mxCell>
                <mxCell id="63" style="edgeStyle=none;curved=1;html=1;exitX=0.5;exitY=1;exitDx=0;exitDy=0;entryX=0.5;entryY=0;entryDx=0;entryDy=0;strokeColor=#FF0000;" parent="1" source="9" target="62" edge="1">
                    <mxGeometry relative="1" as="geometry"/>
                </mxCell>
                <mxCell id="64" value="error on last em&lt;br&gt;if stack underflow" style="edgeLabel;html=1;align=center;verticalAlign=middle;resizable=0;points=[];" parent="63" vertex="1" connectable="0">
                    <mxGeometry x="-0.2023" relative="1" as="geometry">
                        <mxPoint as="offset"/>
                    </mxGeometry>
                </mxCell>
                <mxCell id="9" value="&lt;div style=&quot;color: rgb(229 , 229 , 229) ; background-color: rgb(23 , 26 , 39) ; font-family: &amp;#34;menlo&amp;#34; , &amp;#34;monaco&amp;#34; , &amp;#34;courier new&amp;#34; , monospace ; line-height: 18px&quot;&gt;&lt;span style=&quot;color: #74d992&quot;&gt;DecodeEndingMark&lt;/span&gt;&lt;/div&gt;" style="rounded=1;whiteSpace=wrap;html=1;arcSize=50;" parent="1" vertex="1">
                    <mxGeometry x="490" y="120" width="160" height="40" as="geometry"/>
                </mxCell>
                <mxCell id="65" value="em[0]" style="edgeStyle=none;curved=1;html=1;exitX=0;exitY=0.5;exitDx=0;exitDy=0;strokeColor=default;" parent="1" source="10" target="11" edge="1">
                    <mxGeometry relative="1" as="geometry"/>
                </mxCell>
                <mxCell id="66" value="sepa[0]" style="edgeStyle=none;curved=1;html=1;exitX=0.75;exitY=1;exitDx=0;exitDy=0;entryX=0.5;entryY=0;entryDx=0;entryDy=0;strokeColor=default;" parent="1" source="10" target="12" edge="1">
                    <mxGeometry relative="1" as="geometry"/>
                </mxCell>
                <mxCell id="70" style="edgeStyle=none;curved=1;html=1;exitX=0.204;exitY=1.083;exitDx=0;exitDy=0;strokeColor=#FF0000;exitPerimeter=0;entryX=1;entryY=0;entryDx=0;entryDy=0;" parent="1" source="10" target="74" edge="1">
                    <mxGeometry relative="1" as="geometry">
                        <mxPoint x="565" y="755.61" as="sourcePoint"/>
                        <mxPoint x="450" y="860" as="targetPoint"/>
                    </mxGeometry>
                </mxCell>
                <mxCell id="71" value="other or&lt;br&gt;unadapted&lt;br&gt;container type&lt;br&gt;for em[0] or sm[0]" style="edgeLabel;html=1;align=center;verticalAlign=middle;resizable=0;points=[];labelBackgroundColor=none;" parent="70" vertex="1" connectable="0">
                    <mxGeometry x="0.3082" y="3" relative="1" as="geometry">
                        <mxPoint x="18" y="-22" as="offset"/>
                    </mxGeometry>
                </mxCell>
                <mxCell id="10" value="&lt;div style=&quot;color: rgb(229 , 229 , 229) ; background-color: rgb(23 , 26 , 39) ; font-family: &amp;#34;menlo&amp;#34; , &amp;#34;monaco&amp;#34; , &amp;#34;courier new&amp;#34; , monospace ; line-height: 18px&quot;&gt;&lt;span style=&quot;color: #74d992&quot;&gt;PostVariableSpace&lt;/span&gt;&lt;/div&gt;" style="rounded=1;whiteSpace=wrap;html=1;arcSize=50;" parent="1" vertex="1">
                    <mxGeometry x="525" y="720" width="160" height="40" as="geometry"/>
                </mxCell>
                <mxCell id="56" style="edgeStyle=none;curved=1;html=1;exitX=0;exitY=0.5;exitDx=0;exitDy=0;entryX=0;entryY=0.5;entryDx=0;entryDy=0;strokeColor=default;" parent="1" source="11" target="3" edge="1">
                    <mxGeometry relative="1" as="geometry">
                        <Array as="points">
                            <mxPoint x="20" y="650"/>
                            <mxPoint x="90" y="150"/>
                        </Array>
                    </mxGeometry>
                </mxCell>
                <mxCell id="57" value="last em" style="edgeLabel;html=1;align=center;verticalAlign=middle;resizable=0;points=[];" parent="56" vertex="1" connectable="0">
                    <mxGeometry x="-0.4823" y="-47" relative="1" as="geometry">
                        <mxPoint as="offset"/>
                    </mxGeometry>
                </mxCell>
                <mxCell id="11" value="&lt;div style=&quot;color: rgb(229 , 229 , 229) ; background-color: rgb(23 , 26 , 39) ; font-family: &amp;#34;menlo&amp;#34; , &amp;#34;monaco&amp;#34; , &amp;#34;courier new&amp;#34; , monospace ; line-height: 18px&quot;&gt;&lt;span style=&quot;color: #74d992&quot;&gt;DecodingClosingVariable&lt;/span&gt;&lt;/div&gt;" style="rounded=1;whiteSpace=wrap;html=1;arcSize=50;" parent="1" vertex="1">
                    <mxGeometry x="80" y="720" width="190" height="40" as="geometry"/>
                </mxCell>
                <mxCell id="75" style="edgeStyle=none;curved=1;html=1;exitX=0;exitY=0.5;exitDx=0;exitDy=0;entryX=1;entryY=0.5;entryDx=0;entryDy=0;strokeColor=#FF0000;" parent="1" source="12" target="74" edge="1">
                    <mxGeometry relative="1" as="geometry"/>
                </mxCell>
                <mxCell id="76" value="other" style="edgeLabel;html=1;align=center;verticalAlign=middle;resizable=0;points=[];" parent="75" vertex="1" connectable="0">
                    <mxGeometry x="0.1451" y="5" relative="1" as="geometry">
                        <mxPoint as="offset"/>
                    </mxGeometry>
                </mxCell>
                <mxCell id="77" style="edgeStyle=none;curved=1;html=1;exitX=1;exitY=0.5;exitDx=0;exitDy=0;entryX=0.951;entryY=1.04;entryDx=0;entryDy=0;entryPerimeter=0;strokeColor=default;" parent="1" source="12" target="3" edge="1">
                    <mxGeometry relative="1" as="geometry">
                        <Array as="points">
                            <mxPoint x="950" y="750"/>
                        </Array>
                    </mxGeometry>
                </mxCell>
                <mxCell id="78" value="last sepa" style="edgeLabel;html=1;align=center;verticalAlign=middle;resizable=0;points=[];" parent="77" vertex="1" connectable="0">
                    <mxGeometry x="-0.8481" y="9" relative="1" as="geometry">
                        <mxPoint as="offset"/>
                    </mxGeometry>
                </mxCell>
                <mxCell id="12" value="&lt;div style=&quot;color: rgb(229 , 229 , 229) ; background-color: rgb(23 , 26 , 39) ; font-family: &amp;#34;menlo&amp;#34; , &amp;#34;monaco&amp;#34; , &amp;#34;courier new&amp;#34; , monospace ; line-height: 18px&quot;&gt;&lt;span style=&quot;color: #74d992&quot;&gt;DecodingSeparator&lt;/span&gt;&lt;/div&gt;" style="rounded=1;whiteSpace=wrap;html=1;arcSize=50;" parent="1" vertex="1">
                    <mxGeometry x="650" y="850" width="160" height="40" as="geometry"/>
                </mxCell>
                <mxCell id="15" value="other" style="edgeStyle=none;html=1;exitX=0.5;exitY=0;exitDx=0;exitDy=0;entryX=0.75;entryY=0;entryDx=0;entryDy=0;strokeColor=default;curved=1;" parent="1" source="3" target="3" edge="1">
                    <mxGeometry x="0.3" y="-6" relative="1" as="geometry">
                        <Array as="points">
                            <mxPoint x="310" y="60"/>
                        </Array>
                        <mxPoint as="offset"/>
                    </mxGeometry>
                </mxCell>
                <mxCell id="17" value="sm[i]" style="edgeStyle=none;curved=1;html=1;exitX=0.5;exitY=0;exitDx=0;exitDy=0;entryX=0.75;entryY=0;entryDx=0;entryDy=0;strokeColor=default;elbow=vertical;" parent="1" source="4" target="4" edge="1">
                    <mxGeometry x="0.2" y="-4" relative="1" as="geometry">
                        <Array as="points">
                            <mxPoint x="350" y="200"/>
                        </Array>
                        <mxPoint x="-1" as="offset"/>
                    </mxGeometry>
                </mxCell>
                <mxCell id="26" style="edgeStyle=none;curved=1;html=1;exitX=0.75;exitY=0;exitDx=0;exitDy=0;entryX=0.75;entryY=1;entryDx=0;entryDy=0;strokeColor=default;" parent="1" source="7" target="7" edge="1">
                    <mxGeometry relative="1" as="geometry">
                        <Array as="points">
                            <mxPoint x="420" y="460"/>
                            <mxPoint x="530" y="500"/>
                            <mxPoint x="430" y="540"/>
                        </Array>
                    </mxGeometry>
                </mxCell>
                <mxCell id="27" value="unsignificant starter&lt;br&gt;character" style="edgeLabel;html=1;align=center;verticalAlign=middle;resizable=0;points=[];" parent="26" vertex="1" connectable="0">
                    <mxGeometry x="-0.1634" y="-10" relative="1" as="geometry">
                        <mxPoint as="offset"/>
                    </mxGeometry>
                </mxCell>
                <mxCell id="30" value="" style="shape=sumEllipse;perimeter=ellipsePerimeter;whiteSpace=wrap;html=1;backgroundOutline=1;strokeColor=#FF0000;strokeWidth=3;" parent="1" vertex="1">
                    <mxGeometry x="150" y="490" width="30" height="30" as="geometry"/>
                </mxCell>
                <mxCell id="36" style="edgeStyle=none;curved=1;html=1;strokeColor=default;entryX=0.75;entryY=1;entryDx=0;entryDy=0;exitX=0.75;exitY=0;exitDx=0;exitDy=0;" parent="1" source="5" target="5" edge="1">
                    <mxGeometry relative="1" as="geometry">
                        <mxPoint x="380" y="310" as="sourcePoint"/>
                        <mxPoint x="410" y="430" as="targetPoint"/>
                        <Array as="points">
                            <mxPoint x="420" y="340"/>
                            <mxPoint x="530" y="380"/>
                            <mxPoint x="430" y="420"/>
                        </Array>
                    </mxGeometry>
                </mxCell>
                <mxCell id="37" value="space" style="edgeLabel;html=1;align=center;verticalAlign=middle;resizable=0;points=[];" parent="36" vertex="1" connectable="0">
                    <mxGeometry x="-0.1634" y="-10" relative="1" as="geometry">
                        <mxPoint as="offset"/>
                    </mxGeometry>
                </mxCell>
                <mxCell id="39" style="edgeStyle=none;curved=1;html=1;strokeColor=default;exitX=0.805;exitY=-0.037;exitDx=0;exitDy=0;exitPerimeter=0;entryX=0.75;entryY=1;entryDx=0;entryDy=0;" parent="1" source="8" target="8" edge="1">
                    <mxGeometry relative="1" as="geometry">
                        <mxPoint x="390" y="570" as="sourcePoint"/>
                        <mxPoint x="380" y="680" as="targetPoint"/>
                        <Array as="points">
                            <mxPoint x="430" y="580"/>
                            <mxPoint x="540" y="620"/>
                            <mxPoint x="440" y="660"/>
                        </Array>
                    </mxGeometry>
                </mxCell>
                <mxCell id="40" value="valid variable&lt;br&gt;character" style="edgeLabel;html=1;align=center;verticalAlign=middle;resizable=0;points=[];" parent="39" vertex="1" connectable="0">
                    <mxGeometry x="-0.1634" y="-10" relative="1" as="geometry">
                        <mxPoint as="offset"/>
                    </mxGeometry>
                </mxCell>
                <mxCell id="48" style="edgeStyle=none;curved=1;html=1;exitX=0.25;exitY=1;exitDx=0;exitDy=0;entryX=0.75;entryY=1;entryDx=0;entryDy=0;strokeColor=default;" parent="1" source="11" target="11" edge="1">
                    <mxGeometry relative="1" as="geometry">
                        <Array as="points">
                            <mxPoint x="200" y="830"/>
                        </Array>
                    </mxGeometry>
                </mxCell>
                <mxCell id="49" value="em[i]" style="edgeLabel;html=1;align=center;verticalAlign=middle;resizable=0;points=[];" parent="48" vertex="1" connectable="0">
                    <mxGeometry x="-0.3501" y="16" relative="1" as="geometry">
                        <mxPoint as="offset"/>
                    </mxGeometry>
                </mxCell>
                <mxCell id="50" value="" style="shape=sumEllipse;perimeter=ellipsePerimeter;whiteSpace=wrap;html=1;backgroundOutline=1;strokeColor=#FF0000;strokeWidth=3;" parent="1" vertex="1">
                    <mxGeometry x="120" y="650" width="30" height="30" as="geometry"/>
                </mxCell>
                <mxCell id="58" style="edgeStyle=none;curved=1;html=1;exitX=0.25;exitY=0;exitDx=0;exitDy=0;entryX=0.75;entryY=0;entryDx=0;entryDy=0;strokeColor=default;" parent="1" source="9" target="9" edge="1">
                    <mxGeometry relative="1" as="geometry">
                        <Array as="points">
                            <mxPoint x="570" y="70"/>
                        </Array>
                    </mxGeometry>
                </mxCell>
                <mxCell id="59" value="em[i]" style="edgeLabel;html=1;align=center;verticalAlign=middle;resizable=0;points=[];" parent="58" vertex="1" connectable="0">
                    <mxGeometry x="0.3397" y="-12" relative="1" as="geometry">
                        <mxPoint as="offset"/>
                    </mxGeometry>
                </mxCell>
                <mxCell id="62" value="" style="shape=sumEllipse;perimeter=ellipsePerimeter;whiteSpace=wrap;html=1;backgroundOutline=1;strokeColor=#FF0000;strokeWidth=3;" parent="1" vertex="1">
                    <mxGeometry x="555" y="230" width="30" height="30" as="geometry"/>
                </mxCell>
                <mxCell id="67" style="edgeStyle=none;curved=1;html=1;exitX=0.5;exitY=0;exitDx=0;exitDy=0;entryX=0.75;entryY=0;entryDx=0;entryDy=0;strokeColor=default;" parent="1" source="10" target="10" edge="1">
                    <mxGeometry relative="1" as="geometry">
                        <Array as="points">
                            <mxPoint x="620" y="660"/>
                        </Array>
                    </mxGeometry>
                </mxCell>
                <mxCell id="68" value="space" style="edgeLabel;html=1;align=center;verticalAlign=middle;resizable=0;points=[];" parent="67" vertex="1" connectable="0">
                    <mxGeometry x="0.2898" y="-7" relative="1" as="geometry">
                        <mxPoint y="-15" as="offset"/>
                    </mxGeometry>
                </mxCell>
                <mxCell id="72" style="edgeStyle=none;curved=1;html=1;exitX=0.25;exitY=1;exitDx=0;exitDy=0;entryX=0.75;entryY=1;entryDx=0;entryDy=0;strokeColor=default;" parent="1" source="12" target="12" edge="1">
                    <mxGeometry relative="1" as="geometry">
                        <Array as="points">
                            <mxPoint x="730" y="950"/>
                        </Array>
                    </mxGeometry>
                </mxCell>
                <mxCell id="73" value="sepa[i]" style="edgeLabel;html=1;align=center;verticalAlign=middle;resizable=0;points=[];" parent="72" vertex="1" connectable="0">
                    <mxGeometry x="0.3593" y="14" relative="1" as="geometry">
                        <mxPoint as="offset"/>
                    </mxGeometry>
                </mxCell>
                <mxCell id="74" value="" style="shape=sumEllipse;perimeter=ellipsePerimeter;whiteSpace=wrap;html=1;backgroundOutline=1;strokeColor=#FF0000;strokeWidth=3;" parent="1" vertex="1">
                    <mxGeometry x="460" y="850" width="30" height="30" as="geometry"/>
                </mxCell>
                <mxCell id="79" value="" style="shape=singleArrow;direction=south;whiteSpace=wrap;html=1;labelBackgroundColor=none;strokeColor=none;strokeWidth=2;arrowWidth=0.3220223563058113;arrowSize=0.35532680693126883;fillColor=#008a00;fontColor=#ffffff;" parent="1" vertex="1">
                    <mxGeometry x="240" y="90" width="20" height="30" as="geometry"/>
                </mxCell>
                <mxCell id="80" value="" style="shape=flexArrow;endArrow=classic;html=1;strokeColor=#006EAF;fillColor=#1ba1e2;endWidth=11.2;endSize=5.824;width=6.4;exitX=1;exitY=0;exitDx=0;exitDy=0;" parent="1" source="3" edge="1">
                    <mxGeometry width="50" height="50" relative="1" as="geometry">
                        <mxPoint x="360" y="120" as="sourcePoint"/>
                        <mxPoint x="400" y="100" as="targetPoint"/>
                    </mxGeometry>
                </mxCell>
                <mxCell id="82" value="" style="shape=flexArrow;endArrow=classic;html=1;strokeColor=#006EAF;fillColor=#1ba1e2;endWidth=11.2;endSize=5.824;width=6.4;exitX=1;exitY=0.25;exitDx=0;exitDy=0;" parent="1" source="4" edge="1">
                    <mxGeometry width="50" height="50" relative="1" as="geometry">
                        <mxPoint x="370" y="130" as="sourcePoint"/>
                        <mxPoint x="440" y="230" as="targetPoint"/>
                    </mxGeometry>
                </mxCell>
                <mxCell id="83" value="" style="shape=flexArrow;endArrow=classic;html=1;strokeColor=#006EAF;fillColor=#1ba1e2;endWidth=11.2;endSize=5.824;width=6.4;exitX=1;exitY=0.25;exitDx=0;exitDy=0;" parent="1" source="9" edge="1">
                    <mxGeometry width="50" height="50" relative="1" as="geometry">
                        <mxPoint x="370" y="130" as="sourcePoint"/>
                        <mxPoint x="680" y="110" as="targetPoint"/>
                    </mxGeometry>
                </mxCell>
                <mxCell id="91" value="quote or&amp;nbsp;&lt;br&gt;double quote" style="edgeStyle=none;curved=1;html=1;exitX=0;exitY=0.5;exitDx=0;exitDy=0;entryX=1;entryY=0.25;entryDx=0;entryDy=0;" parent="1" source="85" target="90" edge="1">
                    <mxGeometry x="-0.1272" y="17" relative="1" as="geometry">
                        <Array as="points">
                            <mxPoint x="70" y="870"/>
                        </Array>
                        <mxPoint as="offset"/>
                    </mxGeometry>
                </mxCell>
                <mxCell id="98" value="number" style="edgeStyle=none;curved=1;html=1;exitX=0.75;exitY=1;exitDx=0;exitDy=0;entryX=0;entryY=0.5;entryDx=0;entryDy=0;" parent="1" source="85" target="97" edge="1">
                    <mxGeometry x="0.1803" y="23" relative="1" as="geometry">
                        <Array as="points">
                            <mxPoint x="290" y="970"/>
                        </Array>
                        <mxPoint as="offset"/>
                    </mxGeometry>
                </mxCell>
                <mxCell id="107" style="edgeStyle=none;curved=1;html=1;exitX=0.25;exitY=1;exitDx=0;exitDy=0;entryX=0.5;entryY=0;entryDx=0;entryDy=0;" parent="1" source="85" target="128" edge="1">
                    <mxGeometry relative="1" as="geometry"/>
                </mxCell>
                <mxCell id="108" value="right&lt;br&gt;parenthesis" style="edgeLabel;html=1;align=center;verticalAlign=middle;resizable=0;points=[];" parent="107" vertex="1" connectable="0">
                    <mxGeometry x="-0.1625" relative="1" as="geometry">
                        <mxPoint x="-1" as="offset"/>
                    </mxGeometry>
                </mxCell>
                <mxCell id="115" style="edgeStyle=none;curved=1;html=1;exitX=0.5;exitY=1;exitDx=0;exitDy=0;entryX=0;entryY=0;entryDx=0;entryDy=0;" parent="1" source="85" target="111" edge="1">
                    <mxGeometry relative="1" as="geometry">
                        <Array as="points">
                            <mxPoint x="240" y="1030"/>
                        </Array>
                    </mxGeometry>
                </mxCell>
                <mxCell id="116" value="first&lt;br&gt;letter of&lt;br&gt;constant" style="edgeLabel;html=1;align=center;verticalAlign=middle;resizable=0;points=[];" parent="115" vertex="1" connectable="0">
                    <mxGeometry x="0.1196" y="-2" relative="1" as="geometry">
                        <mxPoint x="24" y="-25" as="offset"/>
                    </mxGeometry>
                </mxCell>
                <mxCell id="85" value="&lt;div style=&quot;color: rgb(229 , 229 , 229) ; background-color: rgb(23 , 26 , 39) ; font-family: &amp;#34;menlo&amp;#34; , &amp;#34;monaco&amp;#34; , &amp;#34;courier new&amp;#34; , monospace ; line-height: 18px&quot;&gt;&lt;div style=&quot;font-family: &amp;#34;menlo&amp;#34; , &amp;#34;monaco&amp;#34; , &amp;#34;courier new&amp;#34; , monospace ; line-height: 18px&quot;&gt;&lt;span style=&quot;color: #74d992&quot;&gt;DecodingParameters&lt;/span&gt;&lt;/div&gt;&lt;/div&gt;" style="rounded=1;whiteSpace=wrap;html=1;arcSize=50;" parent="1" vertex="1">
                    <mxGeometry x="160" y="840" width="160" height="40" as="geometry"/>
                </mxCell>
                <mxCell id="88" style="edgeStyle=none;curved=1;html=1;exitX=0.25;exitY=0;exitDx=0;exitDy=0;entryX=0.5;entryY=0;entryDx=0;entryDy=0;strokeColor=default;" parent="1" source="85" target="85" edge="1">
                    <mxGeometry relative="1" as="geometry">
                        <Array as="points">
                            <mxPoint x="230" y="800"/>
                        </Array>
                        <mxPoint x="230" y="830" as="sourcePoint"/>
                        <mxPoint x="270" y="830" as="targetPoint"/>
                    </mxGeometry>
                </mxCell>
                <mxCell id="89" value="space or comma" style="edgeLabel;html=1;align=center;verticalAlign=middle;resizable=0;points=[];" parent="88" vertex="1" connectable="0">
                    <mxGeometry x="0.2898" y="-7" relative="1" as="geometry">
                        <mxPoint x="5" as="offset"/>
                    </mxGeometry>
                </mxCell>
                <mxCell id="96" value="quote or&amp;nbsp;&lt;br&gt;double quote" style="html=1;exitX=0.25;exitY=1;exitDx=0;exitDy=0;entryX=0;entryY=0.5;entryDx=0;entryDy=0;edgeStyle=orthogonalEdgeStyle;" parent="1" source="90" target="147" edge="1">
                    <mxGeometry x="-0.5385" relative="1" as="geometry">
                        <mxPoint as="offset"/>
                    </mxGeometry>
                </mxCell>
                <mxCell id="141" style="edgeStyle=none;curved=1;html=1;exitX=0.25;exitY=0;exitDx=0;exitDy=0;entryX=0.25;entryY=1;entryDx=0;entryDy=0;" parent="1" source="90" target="140" edge="1">
                    <mxGeometry relative="1" as="geometry"/>
                </mxCell>
                <mxCell id="142" value="backslash" style="edgeLabel;html=1;align=center;verticalAlign=middle;resizable=0;points=[];" parent="141" vertex="1" connectable="0">
                    <mxGeometry x="-0.0527" y="6" relative="1" as="geometry">
                        <mxPoint as="offset"/>
                    </mxGeometry>
                </mxCell>
                <mxCell id="164" value="'u' or 'U'" style="edgeStyle=none;html=1;exitX=0;exitY=1;exitDx=0;exitDy=0;entryX=1;entryY=0.25;entryDx=0;entryDy=0;" parent="1" source="140" target="163" edge="1">
                    <mxGeometry relative="1" as="geometry">
                        <mxPoint x="-320" y="1070" as="targetPoint"/>
                    </mxGeometry>
                </mxCell>
                <mxCell id="90" value="&lt;div style=&quot;color: rgb(229 , 229 , 229) ; background-color: rgb(23 , 26 , 39) ; font-family: &amp;#34;menlo&amp;#34; , &amp;#34;monaco&amp;#34; , &amp;#34;courier new&amp;#34; , monospace ; line-height: 18px&quot;&gt;&lt;span style=&quot;color: #74d992&quot;&gt;StringParameter&lt;/span&gt;&lt;/div&gt;" style="rounded=1;whiteSpace=wrap;html=1;arcSize=50;" parent="1" vertex="1">
                    <mxGeometry x="-260" y="1040" width="180" height="40" as="geometry"/>
                </mxCell>
                <mxCell id="94" style="edgeStyle=none;curved=1;html=1;exitX=0.25;exitY=1;exitDx=0;exitDy=0;entryX=0.75;entryY=1;entryDx=0;entryDy=0;strokeColor=default;" parent="1" source="90" target="90" edge="1">
                    <mxGeometry relative="1" as="geometry">
                        <Array as="points">
                            <mxPoint x="-160" y="1150"/>
                        </Array>
                        <mxPoint x="40" y="1010" as="sourcePoint"/>
                        <mxPoint x="120" y="1010" as="targetPoint"/>
                    </mxGeometry>
                </mxCell>
                <mxCell id="95" value="other" style="edgeLabel;html=1;align=center;verticalAlign=middle;resizable=0;points=[];" parent="94" vertex="1" connectable="0">
                    <mxGeometry x="0.3593" y="14" relative="1" as="geometry">
                        <mxPoint as="offset"/>
                    </mxGeometry>
                </mxCell>
                <mxCell id="99" style="edgeStyle=none;curved=1;html=1;exitX=0.25;exitY=0;exitDx=0;exitDy=0;entryX=1;entryY=0.75;entryDx=0;entryDy=0;" parent="1" source="97" target="85" edge="1">
                    <mxGeometry relative="1" as="geometry">
                        <Array as="points">
                            <mxPoint x="390" y="900"/>
                        </Array>
                    </mxGeometry>
                </mxCell>
                <mxCell id="100" value="space or&lt;br&gt;comma" style="edgeLabel;html=1;align=center;verticalAlign=middle;resizable=0;points=[];" parent="99" vertex="1" connectable="0">
                    <mxGeometry x="-0.2368" y="12" relative="1" as="geometry">
                        <mxPoint as="offset"/>
                    </mxGeometry>
                </mxCell>
                <mxCell id="130" style="html=1;exitX=1;exitY=0.5;exitDx=0;exitDy=0;entryX=1;entryY=0.5;entryDx=0;entryDy=0;rounded=1;edgeStyle=orthogonalEdgeStyle;" parent="1" source="97" target="147" edge="1">
                    <mxGeometry relative="1" as="geometry">
                        <Array as="points">
                            <mxPoint x="680" y="980"/>
                            <mxPoint x="680" y="1420"/>
                        </Array>
                    </mxGeometry>
                </mxCell>
                <mxCell id="131" value="right parenthesis&lt;br&gt;or space&lt;br&gt;or comma" style="edgeLabel;html=1;align=center;verticalAlign=middle;resizable=0;points=[];" parent="130" connectable="0" vertex="1">
                    <mxGeometry x="-0.7043" y="-3" relative="1" as="geometry">
                        <mxPoint x="23" y="34" as="offset"/>
                    </mxGeometry>
                </mxCell>
                <mxCell id="97" value="&lt;div style=&quot;color: rgb(229 , 229 , 229) ; background-color: rgb(23 , 26 , 39) ; font-family: &amp;#34;menlo&amp;#34; , &amp;#34;monaco&amp;#34; , &amp;#34;courier new&amp;#34; , monospace ; line-height: 18px&quot;&gt;&lt;span style=&quot;color: #74d992&quot;&gt;NumberParameter&lt;/span&gt;&lt;/div&gt;" style="rounded=1;whiteSpace=wrap;html=1;arcSize=50;" parent="1" vertex="1">
                    <mxGeometry x="400" y="960" width="160" height="40" as="geometry"/>
                </mxCell>
                <mxCell id="101" style="edgeStyle=none;curved=1;html=1;exitX=0.5;exitY=0;exitDx=0;exitDy=0;entryX=0.5;entryY=1;entryDx=0;entryDy=0;strokeColor=#FF0000;" parent="1" source="97" target="74" edge="1">
                    <mxGeometry relative="1" as="geometry">
                        <mxPoint x="535" y="880" as="sourcePoint"/>
                        <mxPoint x="454" y="885" as="targetPoint"/>
                    </mxGeometry>
                </mxCell>
                <mxCell id="102" value="other" style="edgeLabel;html=1;align=center;verticalAlign=middle;resizable=0;points=[];" parent="101" vertex="1" connectable="0">
                    <mxGeometry x="0.1451" y="5" relative="1" as="geometry">
                        <mxPoint as="offset"/>
                    </mxGeometry>
                </mxCell>
                <mxCell id="105" style="edgeStyle=none;curved=1;html=1;exitX=1;exitY=0.5;exitDx=0;exitDy=0;entryX=0;entryY=0.5;entryDx=0;entryDy=0;strokeColor=#FF0000;" parent="1" source="85" target="74" edge="1">
                    <mxGeometry relative="1" as="geometry">
                        <mxPoint x="535" y="880" as="sourcePoint"/>
                        <mxPoint x="460" y="875" as="targetPoint"/>
                    </mxGeometry>
                </mxCell>
                <mxCell id="106" value="other" style="edgeLabel;html=1;align=center;verticalAlign=middle;resizable=0;points=[];" parent="105" vertex="1" connectable="0">
                    <mxGeometry x="0.1451" y="5" relative="1" as="geometry">
                        <mxPoint as="offset"/>
                    </mxGeometry>
                </mxCell>
                <mxCell id="129" value="right&lt;br&gt;parenthesis" style="edgeStyle=none;html=1;exitX=0;exitY=0.5;exitDx=0;exitDy=0;entryX=1;entryY=0.5;entryDx=0;entryDy=0;" parent="1" source="111" target="128" edge="1">
                    <mxGeometry y="20" relative="1" as="geometry">
                        <mxPoint as="offset"/>
                    </mxGeometry>
                </mxCell>
                <mxCell id="148" style="edgeStyle=orthogonalEdgeStyle;html=1;exitX=0.25;exitY=1;exitDx=0;exitDy=0;entryX=0.75;entryY=0;entryDx=0;entryDy=0;" parent="1" source="111" target="147" edge="1">
                    <mxGeometry relative="1" as="geometry">
                        <Array as="points">
                            <mxPoint x="440" y="1330"/>
                            <mxPoint x="80" y="1330"/>
                        </Array>
                    </mxGeometry>
                </mxCell>
                <mxCell id="149" value="end of constant" style="edgeLabel;html=1;align=center;verticalAlign=middle;resizable=0;points=[];" parent="148" connectable="0" vertex="1">
                    <mxGeometry x="0.1864" y="-1" relative="1" as="geometry">
                        <mxPoint as="offset"/>
                    </mxGeometry>
                </mxCell>
                <mxCell id="111" value="&lt;div style=&quot;color: rgb(229 , 229 , 229) ; background-color: rgb(23 , 26 , 39) ; font-family: &amp;#34;menlo&amp;#34; , &amp;#34;monaco&amp;#34; , &amp;#34;courier new&amp;#34; , monospace ; line-height: 18px&quot;&gt;&lt;span style=&quot;color: #74d992&quot;&gt;ConstantParameter&lt;/span&gt;&lt;/div&gt;" style="rounded=1;whiteSpace=wrap;html=1;arcSize=50;" parent="1" vertex="1">
                    <mxGeometry x="400" y="1080" width="160" height="40" as="geometry"/>
                </mxCell>
                <mxCell id="117" style="edgeStyle=none;curved=1;html=1;exitX=0.25;exitY=1;exitDx=0;exitDy=0;entryX=0.75;entryY=1;entryDx=0;entryDy=0;strokeColor=default;" parent="1" source="111" target="111" edge="1">
                    <mxGeometry relative="1" as="geometry">
                        <Array as="points">
                            <mxPoint x="470" y="1170"/>
                        </Array>
                        <mxPoint x="440" y="1130" as="sourcePoint"/>
                        <mxPoint x="520" y="1130" as="targetPoint"/>
                    </mxGeometry>
                </mxCell>
                <mxCell id="118" value="next constant letter" style="edgeLabel;html=1;align=center;verticalAlign=middle;resizable=0;points=[];" parent="117" vertex="1" connectable="0">
                    <mxGeometry x="0.3593" y="14" relative="1" as="geometry">
                        <mxPoint x="19" y="20" as="offset"/>
                    </mxGeometry>
                </mxCell>
                <mxCell id="121" value="" style="edgeStyle=none;curved=1;html=1;strokeColor=#FF0000;entryX=0.5;entryY=1;entryDx=0;entryDy=0;exitX=0.214;exitY=-0.025;exitDx=0;exitDy=0;exitPerimeter=0;" parent="1" source="11" target="50" edge="1">
                    <mxGeometry relative="1" as="geometry">
                        <mxPoint x="190" y="515" as="targetPoint"/>
                        <mxPoint x="250" y="513" as="sourcePoint"/>
                    </mxGeometry>
                </mxCell>
                <mxCell id="122" value="other" style="edgeLabel;html=1;align=center;verticalAlign=middle;resizable=0;points=[];" parent="121" vertex="1" connectable="0">
                    <mxGeometry x="-0.1667" relative="1" as="geometry">
                        <mxPoint as="offset"/>
                    </mxGeometry>
                </mxCell>
                <mxCell id="123" value="" style="shape=sumEllipse;perimeter=ellipsePerimeter;whiteSpace=wrap;html=1;backgroundOutline=1;strokeColor=#FF0000;strokeWidth=3;" parent="1" vertex="1">
                    <mxGeometry x="315" y="1230" width="30" height="30" as="geometry"/>
                </mxCell>
                <mxCell id="126" value="" style="edgeStyle=none;curved=1;html=1;strokeColor=#FF0000;entryX=1;entryY=0;entryDx=0;entryDy=0;exitX=0.053;exitY=1.04;exitDx=0;exitDy=0;exitPerimeter=0;" parent="1" source="111" target="123" edge="1">
                    <mxGeometry relative="1" as="geometry">
                        <mxPoint x="565" y="1152" as="targetPoint"/>
                        <mxPoint x="625" y="1150" as="sourcePoint"/>
                    </mxGeometry>
                </mxCell>
                <mxCell id="127" value="other&lt;br&gt;or&amp;nbsp;&lt;br&gt;premature&lt;br&gt;ending" style="edgeLabel;html=1;align=center;verticalAlign=middle;resizable=0;points=[];" parent="126" vertex="1" connectable="0">
                    <mxGeometry x="-0.1667" relative="1" as="geometry">
                        <mxPoint x="3" as="offset"/>
                    </mxGeometry>
                </mxCell>
                <mxCell id="132" style="edgeStyle=none;curved=1;html=1;exitX=0.25;exitY=0;exitDx=0;exitDy=0;entryX=0.25;entryY=1;entryDx=0;entryDy=0;" parent="1" source="128" target="11" edge="1">
                    <mxGeometry relative="1" as="geometry">
                        <Array as="points">
                            <mxPoint x="80" y="960"/>
                        </Array>
                    </mxGeometry>
                </mxCell>
                <mxCell id="133" value="em[0]" style="edgeLabel;html=1;align=center;verticalAlign=middle;resizable=0;points=[];" parent="132" vertex="1" connectable="0">
                    <mxGeometry x="0.302" y="-71" relative="1" as="geometry">
                        <mxPoint x="-38" y="125" as="offset"/>
                    </mxGeometry>
                </mxCell>
                <mxCell id="138" style="edgeStyle=none;curved=1;html=1;exitX=0.5;exitY=1;exitDx=0;exitDy=0;entryX=0.5;entryY=1;entryDx=0;entryDy=0;" parent="1" source="128" target="10" edge="1">
                    <mxGeometry relative="1" as="geometry">
                        <Array as="points">
                            <mxPoint x="200" y="1290"/>
                            <mxPoint x="620" y="1290"/>
                            <mxPoint x="650" y="920"/>
                        </Array>
                    </mxGeometry>
                </mxCell>
                <mxCell id="139" value="fusion context&lt;br&gt;node character&lt;br&gt;or space" style="edgeLabel;html=1;align=center;verticalAlign=middle;resizable=0;points=[];" parent="138" vertex="1" connectable="0">
                    <mxGeometry x="0.3789" relative="1" as="geometry">
                        <mxPoint x="-385" y="156" as="offset"/>
                    </mxGeometry>
                </mxCell>
                <mxCell id="128" value="&lt;div style=&quot;background-color: rgb(23 , 26 , 39) ; font-family: &amp;#34;menlo&amp;#34; , &amp;#34;monaco&amp;#34; , &amp;#34;courier new&amp;#34; , monospace ; line-height: 18px&quot;&gt;&lt;font color=&quot;#74d992&quot;&gt;EndOfParameters&lt;/font&gt;&lt;/div&gt;" style="rounded=1;whiteSpace=wrap;html=1;arcSize=50;" parent="1" vertex="1">
                    <mxGeometry x="120" y="1080" width="160" height="40" as="geometry"/>
                </mxCell>
                <mxCell id="136" style="edgeStyle=none;curved=1;html=1;exitX=0.75;exitY=1;exitDx=0;exitDy=0;entryX=0;entryY=0;entryDx=0;entryDy=0;strokeColor=#FF0000;" parent="1" source="128" target="123" edge="1">
                    <mxGeometry relative="1" as="geometry">
                        <mxPoint x="240" y="1140" as="sourcePoint"/>
                        <mxPoint x="340" y="1145" as="targetPoint"/>
                    </mxGeometry>
                </mxCell>
                <mxCell id="137" value="other" style="edgeLabel;html=1;align=center;verticalAlign=middle;resizable=0;points=[];" parent="136" vertex="1" connectable="0">
                    <mxGeometry x="0.1451" y="5" relative="1" as="geometry">
                        <mxPoint as="offset"/>
                    </mxGeometry>
                </mxCell>
                <mxCell id="143" style="edgeStyle=none;html=1;exitX=0.75;exitY=1;exitDx=0;exitDy=0;entryX=0.75;entryY=0;entryDx=0;entryDy=0;" parent="1" source="140" target="90" edge="1">
                    <mxGeometry relative="1" as="geometry"/>
                </mxCell>
                <mxCell id="144" value="'b', 'f', 'n', 'r', 't'&lt;br&gt;or any visible ASCII&lt;br&gt;character" style="edgeLabel;html=1;align=center;verticalAlign=middle;resizable=0;points=[];" parent="143" connectable="0" vertex="1">
                    <mxGeometry x="-0.4091" y="-1" relative="1" as="geometry">
                        <mxPoint y="6" as="offset"/>
                    </mxGeometry>
                </mxCell>
                <mxCell id="140" value="&lt;div style=&quot;color: rgb(229 , 229 , 229) ; background-color: rgb(23 , 26 , 39) ; font-family: &amp;#34;menlo&amp;#34; , &amp;#34;monaco&amp;#34; , &amp;#34;courier new&amp;#34; , monospace ; line-height: 18px&quot;&gt;&lt;span style=&quot;color: #74d992&quot;&gt;StringParamBackslash&lt;/span&gt;&lt;/div&gt;" style="rounded=1;whiteSpace=wrap;html=1;arcSize=50;" parent="1" vertex="1">
                    <mxGeometry x="-260" y="840" width="180" height="40" as="geometry"/>
                </mxCell>
                <mxCell id="145" style="edgeStyle=none;curved=1;html=1;entryX=1;entryY=0;entryDx=0;entryDy=0;strokeColor=#FF0000;exitX=0;exitY=0.5;exitDx=0;exitDy=0;" parent="1" source="140" target="152" edge="1">
                    <mxGeometry relative="1" as="geometry">
                        <mxPoint x="40.30000000000001" y="1180" as="sourcePoint"/>
                        <mxPoint x="119.69339828220183" y="1294.3933982822018" as="targetPoint"/>
                    </mxGeometry>
                </mxCell>
                <mxCell id="146" value="other" style="edgeLabel;html=1;align=center;verticalAlign=middle;resizable=0;points=[];" parent="145" connectable="0" vertex="1">
                    <mxGeometry x="0.1451" y="5" relative="1" as="geometry">
                        <mxPoint x="5" y="4" as="offset"/>
                    </mxGeometry>
                </mxCell>
                <mxCell id="151" style="edgeStyle=orthogonalEdgeStyle;rounded=1;html=1;exitX=0.5;exitY=0;exitDx=0;exitDy=0;entryX=0.25;entryY=1;entryDx=0;entryDy=0;" parent="1" source="147" target="128" edge="1">
                    <mxGeometry relative="1" as="geometry"/>
                </mxCell>
                <mxCell id="153" value="right&lt;br&gt;parenthesis" style="edgeLabel;html=1;align=center;verticalAlign=middle;resizable=0;points=[];" parent="151" connectable="0" vertex="1">
                    <mxGeometry x="-0.0121" y="1" relative="1" as="geometry">
                        <mxPoint as="offset"/>
                    </mxGeometry>
                </mxCell>
                <mxCell id="158" style="rounded=1;html=1;exitX=0.25;exitY=0;exitDx=0;exitDy=0;entryX=0.056;entryY=0.919;entryDx=0;entryDy=0;entryPerimeter=0;" parent="1" source="147" target="85" edge="1">
                    <mxGeometry relative="1" as="geometry">
                        <Array as="points">
                            <mxPoint y="1170"/>
                        </Array>
                    </mxGeometry>
                </mxCell>
                <mxCell id="159" value="comma" style="edgeLabel;html=1;align=center;verticalAlign=middle;resizable=0;points=[];" parent="158" connectable="0" vertex="1">
                    <mxGeometry x="0.0359" y="-2" relative="1" as="geometry">
                        <mxPoint x="-31" y="152" as="offset"/>
                    </mxGeometry>
                </mxCell>
                <mxCell id="147" value="&lt;div style=&quot;background-color: rgb(23 , 26 , 39) ; font-family: &amp;#34;menlo&amp;#34; , &amp;#34;monaco&amp;#34; , &amp;#34;courier new&amp;#34; , monospace ; line-height: 18px&quot;&gt;&lt;font color=&quot;#74d992&quot;&gt;AfterParameter&lt;/font&gt;&lt;/div&gt;" style="rounded=1;whiteSpace=wrap;html=1;arcSize=50;" parent="1" vertex="1">
                    <mxGeometry x="-40" y="1400" width="160" height="40" as="geometry"/>
                </mxCell>
                <mxCell id="152" value="" style="shape=sumEllipse;perimeter=ellipsePerimeter;whiteSpace=wrap;html=1;backgroundOutline=1;strokeColor=#FF0000;strokeWidth=3;" parent="1" vertex="1">
                    <mxGeometry x="-440" y="920" width="30" height="30" as="geometry"/>
                </mxCell>
                <mxCell id="154" style="edgeStyle=none;curved=1;html=1;strokeColor=default;entryX=0.75;entryY=1;entryDx=0;entryDy=0;exitX=0.25;exitY=1;exitDx=0;exitDy=0;" parent="1" source="147" target="147" edge="1">
                    <mxGeometry relative="1" as="geometry">
                        <Array as="points">
                            <mxPoint x="40" y="1500"/>
                        </Array>
                        <mxPoint y="1470" as="sourcePoint"/>
                        <mxPoint x="80" y="1460" as="targetPoint"/>
                    </mxGeometry>
                </mxCell>
                <mxCell id="155" value="space" style="edgeLabel;html=1;align=center;verticalAlign=middle;resizable=0;points=[];" parent="154" connectable="0" vertex="1">
                    <mxGeometry x="0.3593" y="14" relative="1" as="geometry">
                        <mxPoint as="offset"/>
                    </mxGeometry>
                </mxCell>
                <mxCell id="160" style="edgeStyle=none;curved=1;html=1;exitX=0.906;exitY=1.048;exitDx=0;exitDy=0;entryX=0;entryY=0;entryDx=0;entryDy=0;strokeColor=#FF0000;exitPerimeter=0;" parent="1" source="147" target="162" edge="1">
                    <mxGeometry relative="1" as="geometry">
                        <mxPoint x="135" y="1450" as="sourcePoint"/>
                        <mxPoint x="235" y="1475" as="targetPoint"/>
                    </mxGeometry>
                </mxCell>
                <mxCell id="161" value="other" style="edgeLabel;html=1;align=center;verticalAlign=middle;resizable=0;points=[];" parent="160" connectable="0" vertex="1">
                    <mxGeometry x="0.1451" y="5" relative="1" as="geometry">
                        <mxPoint as="offset"/>
                    </mxGeometry>
                </mxCell>
                <mxCell id="162" value="" style="shape=sumEllipse;perimeter=ellipsePerimeter;whiteSpace=wrap;html=1;backgroundOutline=1;strokeColor=#FF0000;strokeWidth=3;" parent="1" vertex="1">
                    <mxGeometry x="140" y="1500" width="30" height="30" as="geometry"/>
                </mxCell>
                <mxCell id="167" style="edgeStyle=none;html=1;exitX=1;exitY=0.5;exitDx=0;exitDy=0;entryX=0;entryY=0.5;entryDx=0;entryDy=0;" parent="1" source="163" target="90" edge="1">
                    <mxGeometry relative="1" as="geometry"/>
                </mxCell>
                <mxCell id="168" value="end sequence" style="edgeLabel;html=1;align=center;verticalAlign=middle;resizable=0;points=[];" parent="167" vertex="1" connectable="0">
                    <mxGeometry x="-0.1646" y="-1" relative="1" as="geometry">
                        <mxPoint x="13" as="offset"/>
                    </mxGeometry>
                </mxCell>
                <mxCell id="163" value="&lt;div style=&quot;background-color: rgb(23 , 26 , 39) ; font-family: &amp;#34;menlo&amp;#34; , &amp;#34;monaco&amp;#34; , &amp;#34;courier new&amp;#34; , monospace ; line-height: 18px&quot;&gt;&lt;div style=&quot;color: rgb(229 , 229 , 229) ; font-family: &amp;#34;menlo&amp;#34; , &amp;#34;monaco&amp;#34; , &amp;#34;courier new&amp;#34; , monospace ; line-height: 18px&quot;&gt;&lt;span style=&quot;color: #74d992&quot;&gt;StringParamUnicode&lt;/span&gt;&lt;/div&gt;&lt;/div&gt;" style="rounded=1;whiteSpace=wrap;html=1;arcSize=50;" parent="1" vertex="1">
                    <mxGeometry x="-600" y="1040" width="180" height="40" as="geometry"/>
                </mxCell>
                <mxCell id="165" style="edgeStyle=none;curved=1;html=1;exitX=0.25;exitY=1;exitDx=0;exitDy=0;entryX=0.75;entryY=1;entryDx=0;entryDy=0;strokeColor=default;" parent="1" source="163" target="163" edge="1">
                    <mxGeometry relative="1" as="geometry">
                        <Array as="points">
                            <mxPoint x="-520" y="1130"/>
                        </Array>
                        <mxPoint x="-480" y="1090" as="sourcePoint"/>
                        <mxPoint x="-390" y="1090" as="targetPoint"/>
                    </mxGeometry>
                </mxCell>
                <mxCell id="166" value="hexadeciimal character" style="edgeLabel;html=1;align=center;verticalAlign=middle;resizable=0;points=[];" parent="165" vertex="1" connectable="0">
                    <mxGeometry x="0.3593" y="14" relative="1" as="geometry">
                        <mxPoint y="23" as="offset"/>
                    </mxGeometry>
                </mxCell>
                <mxCell id="169" style="edgeStyle=none;curved=1;html=1;entryX=0;entryY=1;entryDx=0;entryDy=0;strokeColor=#FF0000;exitX=0.5;exitY=0;exitDx=0;exitDy=0;" parent="1" source="163" target="152" edge="1">
                    <mxGeometry relative="1" as="geometry">
                        <mxPoint x="-250" y="870" as="sourcePoint"/>
                        <mxPoint x="-430" y="955" as="targetPoint"/>
                    </mxGeometry>
                </mxCell>
                <mxCell id="170" value="other" style="edgeLabel;html=1;align=center;verticalAlign=middle;resizable=0;points=[];" parent="169" connectable="0" vertex="1">
                    <mxGeometry x="0.1451" y="5" relative="1" as="geometry">
                        <mxPoint x="5" y="4" as="offset"/>
                    </mxGeometry>
                </mxCell>
            </root>
        </mxGraphModel>
    </diagram>
</mxfile>